<?xml version="1.0" standalone="no"?>
<!DOCTYPE svg PUBLIC "-//W3C//DTD SVG 20010904//EN"
 "http://www.w3.org/TR/2001/REC-SVG-20010904/DTD/svg10.dtd">
<svg version="1.0" xmlns="http://www.w3.org/2000/svg"
 width="933.000000pt" height="478.000000pt" viewBox="0 0 933.000000 478.000000"
 preserveAspectRatio="xMidYMid meet">

<g transform="translate(0.000000,478.000000) scale(0.100000,-0.100000)"
fill="#4462FF" stroke="none">
<path d="M110 2365 l0 -2215 4550 0 4550 0 0 2215 0 2215 -4550 0 -4550 0 0
-2215z m3760 5 l0 -2130 -1845 0 -1845 0 0 2130 0 2130 1845 0 1845 0 0 -2130z
m676 236 c63 -29 79 -59 48 -90 -14 -14 -20 -13 -64 9 -38 19 -65 25 -115 25
-77 0 -126 -21 -172 -74 -43 -48 -57 -97 -57 -192 0 -68 5 -90 28 -138 40 -82
86 -110 187 -115 67 -3 86 1 133 22 l56 26 17 -26 c17 -25 16 -26 -14 -54 -41
-36 -90 -49 -184 -49 -104 0 -161 21 -225 84 -69 69 -94 135 -94 256 0 119 25
186 94 256 64 64 114 82 226 83 69 1 94 -4 136 -23z m499 -152 c88 -41 135
-126 135 -242 0 -85 -15 -133 -59 -183 -47 -56 -100 -79 -184 -79 -151 0 -235
83 -245 243 -9 143 59 246 183 278 44 12 128 3 170 -17z m552 11 c28 -8 56
-21 62 -29 10 -12 19 -11 59 10 129 67 286 21 312 -91 5 -22 10 -120 10 -217
l0 -176 -31 -7 c-22 -5 -36 -2 -50 11 -17 16 -19 32 -19 201 0 168 -2 185 -19
202 -37 37 -126 39 -178 6 -23 -15 -23 -18 -23 -214 l0 -199 -25 -6 c-14 -4
-34 -2 -45 4 -17 9 -19 25 -22 200 -3 182 -4 190 -26 212 -19 19 -33 23 -85
23 -43 0 -71 -6 -90 -18 l-27 -17 0 -199 c0 -172 -2 -200 -16 -205 -25 -10
-42 -7 -58 10 -14 13 -16 47 -16 214 0 109 3 205 6 214 14 35 127 84 200 85
17 1 53 -6 81 -14z m880 0 c28 -8 56 -21 62 -29 10 -12 19 -11 59 10 129 67
286 21 312 -91 5 -22 10 -120 10 -217 l0 -176 -31 -7 c-22 -5 -36 -2 -50 11
-17 16 -19 32 -19 201 0 169 -2 185 -20 203 -37 37 -124 40 -175 6 l-25 -16 0
-199 0 -199 -25 -6 c-14 -4 -34 -2 -45 4 -17 9 -19 25 -22 200 -3 182 -4 190
-26 212 -19 19 -33 23 -85 23 -43 0 -71 -6 -90 -18 l-27 -17 0 -199 c0 -172
-2 -200 -16 -205 -25 -10 -42 -7 -58 10 -14 13 -16 47 -16 218 0 189 1 204 20
224 58 61 171 86 267 57z m886 1 c88 -32 147 -112 147 -201 0 -58 0 -58 -205
-85 -88 -12 -161 -23 -163 -25 -2 -2 4 -21 14 -42 44 -90 167 -117 276 -62 31
16 38 17 48 4 22 -27 3 -65 -43 -85 -49 -23 -167 -27 -229 -8 -56 17 -123 79
-144 135 -26 68 -24 174 5 239 29 67 67 102 133 125 63 22 109 23 161 5z m574
-9 c10 -9 13 -24 10 -39 -6 -21 -11 -23 -79 -23 -40 0 -90 -6 -110 -14 l-38
-13 0 -203 c0 -176 -2 -204 -16 -209 -25 -10 -42 -7 -58 10 -14 13 -16 47 -16
215 0 119 4 208 10 220 13 24 78 57 133 69 61 13 145 6 164 -13z m406 9 c68
-25 97 -67 63 -95 -10 -8 -21 -7 -46 6 -55 27 -118 28 -170 1 -55 -29 -80 -71
-87 -147 -10 -110 33 -182 122 -202 46 -10 60 -9 102 5 26 9 55 20 65 22 20 7
41 -27 32 -51 -20 -52 -194 -75 -279 -36 -92 42 -138 122 -138 240 0 126 58
215 165 252 63 22 119 23 171 5z m513 -14 c67 -35 102 -86 118 -174 11 -62 -5
-70 -199 -97 -93 -12 -171 -24 -172 -25 -2 -1 7 -22 20 -46 30 -61 73 -84 156
-84 49 0 77 5 108 22 35 18 43 19 53 7 22 -27 7 -59 -40 -82 -64 -33 -185 -32
-255 1 -99 46 -140 126 -133 259 7 127 56 199 161 233 54 18 134 11 183 -14z"/>
<path d="M1737 3149 c-45 -26 -47 -48 -47 -599 l0 -520 -402 0 -403 0 250 250
250 250 0 44 c0 74 -65 120 -133 95 -15 -5 -181 -164 -370 -352 -365 -365
-370 -371 -342 -437 7 -17 27 -41 44 -53 31 -22 31 -22 568 -25 l537 -3 3
-145 3 -146 33 -29 c44 -39 90 -39 134 0 l33 29 3 146 3 146 97 0 c54 0 112 4
131 10 74 21 106 85 77 154 -22 53 -61 66 -196 66 l-110 0 0 525 c0 562 -1
569 -49 595 -25 13 -91 12 -114 -1z"/>
<path d="M2331 3134 l-31 -26 0 -798 0 -799 24 -28 24 -28 468 -3 c341 -2 476
1 497 9 59 25 57 -4 57 854 l0 787 -29 29 c-24 23 -38 29 -73 29 -36 0 -50 -6
-74 -31 l-29 -30 -3 -715 -3 -714 -327 2 -327 3 -5 718 -5 719 -28 24 c-39 33
-95 33 -136 -2z"/>
<path d="M4860 2377 c-55 -37 -75 -80 -74 -167 0 -50 5 -85 17 -107 65 -121
240 -101 276 32 21 77 10 158 -30 213 -39 54 -131 69 -189 29z"/>
<path d="M7213 2381 c-41 -25 -64 -61 -73 -112 l-7 -39 31 5 c41 6 245 35 251
35 3 0 5 11 5 25 0 15 -14 41 -33 62 -29 31 -41 37 -88 40 -42 3 -61 0 -86
-16z"/>
<path d="M8673 2380 c-42 -25 -63 -59 -70 -111 -6 -41 -6 -41 23 -35 16 3 81
13 144 22 63 9 117 17 119 19 2 2 -6 24 -18 49 -36 72 -128 99 -198 56z"/>
</g>
</svg>
