<?xml version="1.0" standalone="no"?>
<!DOCTYPE svg PUBLIC "-//W3C//DTD SVG 20010904//EN"
 "http://www.w3.org/TR/2001/REC-SVG-20010904/DTD/svg10.dtd">
<svg version="1.0" xmlns="http://www.w3.org/2000/svg"
 width="757.000000pt" height="671.000000pt" viewBox="0 0 757.000000 671.000000"
 preserveAspectRatio="xMidYMid meet">

<g transform="translate(0.000000,671.000000) scale(0.100000,-0.100000)"
fill="#000000" stroke="none">
<path d="M5480 5933 c-44 -17 -92 -70 -127 -141 l-38 -76 -3 -1137 -2 -1137
-28 -18 c-15 -9 -189 -135 -387 -279 -402 -292 -421 -305 -429 -305 -3 0 -6
501 -6 1113 0 1157 0 1144 -41 1170 -60 37 -185 -91 -215 -222 -17 -72 -20
-2443 -3 -2503 11 -43 44 -58 89 -41 14 5 177 119 361 253 184 134 439 320
568 413 128 94 247 184 263 201 16 17 44 60 61 96 l32 65 0 1256 c0 1222 -1
1257 -19 1278 -19 20 -45 25 -76 14z"/>
<path d="M3314 5345 l-27 -27 7 -904 c4 -497 4 -904 1 -904 -4 0 -144 98 -313
217 -169 120 -361 256 -428 303 -66 47 -175 123 -242 170 -67 47 -122 88 -122
91 0 6 83 50 550 293 61 32 110 64 118 78 20 35 9 136 -21 202 -32 69 -108
151 -153 166 -40 13 -45 11 -329 -138 -93 -49 -278 -146 -409 -215 -270 -141
-272 -143 -263 -236 8 -73 72 -203 129 -259 37 -36 201 -154 976 -700 68 -48
212 -150 320 -227 l197 -140 5 -250 5 -250 32 -67 c52 -111 149 -187 208 -164
9 3 23 22 31 43 14 32 15 69 9 255 -6 171 -5 218 5 218 7 0 79 -48 161 -106
165 -117 209 -134 247 -96 60 60 22 233 -74 340 -21 24 -106 92 -189 150
l-150 107 -6 425 c-3 234 -7 635 -8 891 -1 533 -3 545 -84 656 -73 98 -136
125 -183 78z"/>
<path d="M1450 2244 c-87 -40 -130 -90 -163 -188 -24 -71 -23 -200 3 -270 28
-73 87 -138 152 -166 78 -34 215 -34 283 1 61 30 76 52 53 75 -15 15 -20 15
-64 -7 -144 -69 -307 -8 -348 132 -33 111 -12 237 52 309 67 75 186 96 289 50
57 -25 60 -25 68 0 25 79 -199 123 -325 64z"/>
<path d="M5419 2160 c-61 -10 -99 -31 -138 -75 -46 -53 -61 -97 -61 -185 0
-91 21 -149 68 -194 44 -41 121 -64 195 -60 95 6 168 52 138 87 -11 14 -17 13
-54 -4 -60 -27 -145 -25 -187 4 -59 40 -75 70 -78 155 -3 66 0 83 21 122 43
82 141 112 237 74 47 -19 66 -10 55 25 -13 42 -105 65 -196 51z"/>
<path d="M5854 2146 c-180 -84 -178 -396 3 -471 85 -36 222 -27 278 17 26 21
30 34 16 57 -7 11 -17 10 -57 -9 -35 -17 -65 -24 -109 -23 -90 1 -138 31 -169
105 -16 36 -16 36 12 42 26 6 195 32 277 43 77 11 88 30 64 118 -14 51 -92
129 -139 138 -63 13 -124 7 -176 -17z m171 -52 c37 -17 62 -50 75 -95 10 -35
41 -27 -277 -73 -18 -3 -23 2 -23 21 0 30 25 91 48 117 40 44 119 58 177 30z"/>
<path d="M4954 2146 c-59 -19 -104 -48 -110 -71 -2 -11 -3 -110 -2 -220 l3
-200 37 -3 38 -3 2 207 3 207 40 15 c22 8 70 15 107 16 74 1 91 15 62 47 -21
23 -115 25 -180 5z"/>
<path d="M3868 2139 c-27 -4 -63 -17 -81 -28 l-33 -20 -50 25 c-43 23 -58 25
-126 21 -87 -6 -175 -44 -184 -81 -2 -12 -3 -111 -2 -221 l3 -200 38 -3 37 -3
0 205 0 205 33 18 c19 10 56 17 89 17 50 1 61 -3 85 -27 l28 -27 5 -193 5
-192 35 0 35 0 1 199 1 199 28 20 c34 25 115 34 156 17 51 -22 59 -56 59 -254
0 -152 2 -175 16 -180 9 -4 25 -4 35 -1 18 6 19 20 20 188 2 219 2 214 -22
253 -33 54 -114 78 -211 63z"/>
<path d="M4395 2135 c-57 -20 -120 -92 -135 -156 -17 -70 -8 -174 19 -227 56
-110 226 -155 355 -93 40 20 47 27 44 50 -3 30 -10 30 -92 1 -51 -18 -65 -20
-112 -10 -31 7 -68 23 -85 38 -32 26 -64 86 -55 101 3 5 34 12 68 15 131 15
292 46 300 58 20 31 -18 142 -64 185 -54 51 -159 68 -243 38z m185 -80 c33
-32 55 -78 46 -100 -3 -9 -18 -15 -34 -15 -16 0 -67 -6 -113 -14 -46 -8 -100
-16 -119 -18 -33 -3 -35 -2 -32 27 2 17 12 49 23 72 40 83 165 110 229 48z"/>
<path d="M2610 2113 c-25 -9 -60 -26 -77 -40 l-33 -24 0 -210 c0 -207 0 -210
22 -218 12 -4 30 -6 40 -3 17 4 18 21 18 209 l0 204 34 14 c75 31 172 20 193
-23 4 -9 10 -102 13 -207 l5 -190 38 -3 38 -3 -2 203 -1 203 42 22 c74 40 162
25 188 -32 8 -17 12 -87 12 -205 0 -170 1 -179 20 -185 11 -3 29 -3 40 0 19 6
20 15 20 193 0 221 -10 256 -79 291 -59 31 -161 29 -227 -4 l-50 -25 -48 25
c-58 29 -135 32 -206 8z"/>
<path d="M2026 2105 c-51 -18 -104 -69 -129 -125 -16 -34 -21 -65 -20 -127 0
-71 4 -88 30 -135 21 -36 45 -62 78 -83 44 -27 57 -30 130 -30 73 0 86 3 130
30 33 21 57 47 79 85 28 50 31 62 31 145 -1 73 -5 98 -23 132 -26 50 -84 100
-132 113 -49 14 -128 12 -174 -5z m179 -71 c75 -49 98 -212 42 -295 -37 -54
-71 -73 -130 -73 -105 0 -157 63 -157 192 0 107 35 170 106 192 38 12 108 4
139 -16z"/>
</g>
</svg>
